<svg width="20" height="20" viewBox="0 0 20 20" fill="none" xmlns="http://www.w3.org/2000/svg">
<path d="M2.28399 6.31321H2.55767C3.61134 6.31321 4.47343 7.1753 4.47343 8.22897V17.8078C4.47343 18.8615 3.61134 19.7236 2.55767 19.7236H2.28399C1.23032 19.7236 0.368225 18.8615 0.368225 17.8078V8.22897C0.368225 7.1753 1.23032 6.31321 2.28399 6.31321ZM9.94705 0.565918C11.0007 0.565918 11.8628 1.42801 11.8628 2.48168V17.8078C11.8628 18.8615 11.0007 19.7236 9.94705 19.7236C8.89337 19.7236 8.03128 18.8615 8.03128 17.8078V2.48168C8.03128 1.42801 8.89337 0.565918 9.94705 0.565918ZM17.6101 11.5131C18.6638 11.5131 19.5259 12.3752 19.5259 13.4289V17.8078C19.5259 18.8615 18.6638 19.7236 17.6101 19.7236C16.5564 19.7236 15.6943 18.8615 15.6943 17.8078V13.4289C15.6943 12.3752 16.5564 11.5131 17.6101 11.5131Z" fill="currentColor"/>
</svg>
