<svg width="24" height="24" viewBox="0 0 24 24" fill="none" xmlns="http://www.w3.org/2000/svg">
<path d="M2.85734 11.9995C2.85734 11.3722 3.36566 10.8638 3.99275 10.8638C4.61985 10.8638 5.12817 11.3723 5.12817 11.9995C5.12817 12.6268 4.61985 13.1352 3.99275 13.1352C3.36575 13.1352 2.85734 12.6267 2.85734 11.9995ZM8.23543 11.6729C7.97856 11.4987 7.62859 11.5657 7.45421 11.8229L6.31702 13.5002H2.62268C2.52068 13.5002 2.42056 13.5279 2.33309 13.5804L0.273013 14.8175C0.0543868 14.9486 -0.048645 15.2106 0.0221366 15.4556L0.627578 17.5538C0.698641 17.8002 0.923548 17.9605 1.16777 17.9605C1.21942 17.9605 1.27192 17.9533 1.32405 17.9383C1.62255 17.8522 1.79468 17.5404 1.70852 17.2419L1.22308 15.5594L2.43753 14.8341V20.6252L0.884454 22.9663C0.684578 23.2686 0.767547 23.6757 1.06989 23.8755C1.18127 23.9492 1.30699 23.9845 1.43121 23.9845C1.64411 23.9845 1.85299 23.881 1.97918 23.69L3.63884 21.18C3.70981 21.0727 3.74769 20.9469 3.74769 20.8182V18.9362C3.79485 18.935 3.84135 18.933 3.88681 18.9298L4.68519 20.8789V23.344C4.68519 23.7064 4.97901 24.0002 5.34145 24.0002C5.70389 24.0002 5.9977 23.7064 5.9977 23.344V20.7496C5.9977 20.6643 5.98111 20.5797 5.94876 20.5009L4.8727 17.8739V14.6252H6.61524C6.8018 14.6252 6.97618 14.5327 7.0808 14.3783L8.38534 12.4542C8.55972 12.197 8.49259 11.8473 8.23543 11.6729ZM23.0701 2.94583C22.827 2.82733 22.5865 2.70714 22.3485 2.58536C22.1083 2.45973 21.8687 2.32942 21.6329 2.1992C21.1923 1.95554 20.762 1.70588 20.3402 1.45163C20.3094 1.46888 20.2783 1.48557 20.2473 1.50273C20.2449 2.00486 20.2241 2.4948 20.1962 2.99514C20.1658 3.52961 20.1244 4.0698 20.0719 4.61525C19.181 4.05115 18.3238 3.44814 17.5125 2.83577C17.4809 2.84917 17.4496 2.86305 17.418 2.87627C17.3572 3.36443 17.2873 3.85652 17.2065 4.35293C17.1633 4.61815 17.1173 4.88459 17.0682 5.15206C17.0191 5.41934 16.9681 5.69028 16.91 5.95082C16.4823 5.60834 16.0661 5.26147 15.6618 4.91075C15.2835 4.58178 14.918 4.25552 14.5562 3.90687C14.5225 3.91708 14.4889 3.92712 14.4551 3.93724C14.3432 4.41696 14.222 4.8995 14.0893 5.38531C14.0182 5.64556 13.9442 5.90656 13.8671 6.16841C13.7887 6.42482 13.7067 6.67991 13.622 6.93679C12.8707 6.18932 12.1693 5.45187 11.5023 4.65509C11.4672 4.66165 11.432 4.66756 11.397 4.67412C11.2347 5.14062 11.0629 5.609 10.8796 6.07925L10.7299 6.45782L10.574 6.8272C10.4687 7.07348 10.3602 7.32004 10.2486 7.56707C9.90401 7.14529 9.57166 6.72182 9.2515 6.29694C8.95263 5.89944 8.66275 5.48216 8.38403 5.07228C8.3485 5.07509 8.31306 5.07856 8.27753 5.08128C8.06659 5.52931 7.84609 5.97838 7.61406 6.42791C7.36487 6.90163 7.10302 7.36645 6.82936 7.83661C6.53142 7.3821 6.24558 6.92713 5.97183 6.47226C5.71645 6.03491 5.4727 5.59756 5.23832 5.16059C5.20251 5.15975 5.16688 5.15815 5.13107 5.15722C4.8741 5.58144 4.60748 6.00903 4.3296 6.42791C4.03232 6.86845 3.72294 7.30823 3.40137 7.74698C3.15284 7.26201 2.91528 6.78979 2.69196 6.29694C2.48365 5.83578 2.28696 5.37594 2.09993 4.9174C2.06515 4.91281 2.03046 4.90747 1.99568 4.90287C1.85571 5.08756 1.71452 5.27225 1.56986 5.45637L1.31833 5.77325L1.0638 6.07953C0.721328 6.48726 0.366764 6.8932 1.1511e-05 7.2967V4.56706V4.47687V4.08893C1.92799 4.49346 3.92507 4.70787 5.97164 4.70787C11.8121 4.70787 17.2543 2.97536 21.8157 9.37549e-05L22.8751 0C22.9672 0.976131 23.0614 1.94626 23.0701 2.94583ZM13.0856 13.1352C13.7127 13.1352 14.221 12.6267 14.221 11.9995C14.221 11.3722 13.7127 10.8638 13.0856 10.8638C12.4585 10.8638 11.9502 11.3723 11.9502 11.9995C11.9502 12.6267 12.4585 13.1352 13.0856 13.1352ZM17.6262 16.2211L14.6785 13.6395C14.576 13.5497 14.4443 13.5002 14.3079 13.5002H12.1569C12.0327 13.5002 11.912 13.5412 11.8136 13.6171L10.1332 14.9117L8.86619 13.8169C8.63115 13.6139 8.27593 13.6396 8.07278 13.8747C7.86962 14.1097 7.89559 14.465 8.13062 14.6681L9.745 16.0631C9.94722 16.2378 10.2444 16.2461 10.456 16.0831L12.0002 14.8934L12.0001 18.3217L10.7185 20.3295C10.6682 20.4085 10.6353 20.4971 10.622 20.5898L10.244 23.2353C10.1928 23.5941 10.442 23.9265 10.8008 23.9778C10.8323 23.9823 10.8635 23.9845 10.8945 23.9845C11.2158 23.9845 11.4965 23.7482 11.5433 23.4209L11.9012 20.9159L13.1251 18.9986V23.344C13.1251 23.7064 13.4189 24.0002 13.7813 24.0002C14.1438 24.0002 14.4376 23.7064 14.4376 23.344V18.1877V17.8127V14.9241L16.885 17.0675C16.9917 17.1609 17.1238 17.2068 17.2554 17.2068C17.4118 17.2068 17.5675 17.1419 17.6787 17.0149C17.8835 16.7812 17.86 16.4258 17.6262 16.2211ZM23.7668 21.8148L21.7495 20.093L21.2789 17.8121V14.4742L23.9029 10.607C24.0773 10.35 24.0104 10.0001 23.7533 9.82571C23.4961 9.65124 23.1464 9.71827 22.972 9.97534L20.5803 13.5002H17.5147L15.9462 12.1156C15.7134 11.91 15.3578 11.932 15.1523 12.165C14.9467 12.3979 14.9688 12.7534 15.2017 12.959L16.9297 14.4844C17.0325 14.5751 17.1649 14.6252 17.302 14.6252H18.8439V23.344C18.8439 23.7064 19.1352 24.0002 19.4977 24.0002C19.8601 24.0002 20.1539 23.7064 20.1539 23.344V18.8547L20.5096 20.5786C20.5391 20.7215 20.6153 20.8505 20.7263 20.9452L22.9147 22.8132C23.0383 22.9186 23.1899 22.9703 23.3405 22.9703C23.526 22.9703 23.7101 22.8922 23.8399 22.7401C24.0751 22.4644 24.0425 22.0501 23.7668 21.8148ZM19.5628 13.1116C20.1899 13.1116 20.6983 12.6031 20.6983 11.9759C20.6983 11.3486 20.1899 10.8402 19.5628 10.8402C18.9357 10.8402 18.4274 11.3487 18.4274 11.9759C18.4274 12.6031 18.9357 13.1116 19.5628 13.1116Z" fill="currentColor"/>
</svg>
