<svg width="61" height="61" viewBox="0 0 61 61" fill="none" xmlns="http://www.w3.org/2000/svg">
<path fill-rule="evenodd" clip-rule="evenodd" d="M40.9246 30.2749C40.9246 29.2394 40.0851 28.3999 39.0496 28.3999H11.6182L16.5198 24.1985C17.3061 23.5246 17.3971 22.3409 16.7232 21.5547C16.0493 20.7685 14.8656 20.6774 14.0794 21.3513L5.32937 28.8514C4.91377 29.2074 4.67459 29.7277 4.67459 30.2749C4.67459 30.8222 4.91377 31.3424 5.32937 31.6984L14.0794 39.1984C14.8656 39.8724 16.0493 39.7814 16.7232 38.9952C17.3971 38.2089 17.3061 37.0252 16.5198 36.3514L11.6182 32.1499H39.0496C40.0851 32.1499 40.9246 31.3104 40.9246 30.2749Z" fill="currentColor"/>
<path d="M24.0496 20.2749C24.0496 22.0304 24.0496 22.9081 24.4709 23.5387C24.6533 23.8117 24.8877 24.0461 25.1607 24.2285C25.7913 24.6498 26.6691 24.6498 28.4246 24.6498H39.0496C42.1561 24.6498 44.6746 27.1682 44.6746 30.2749C44.6746 33.3814 42.1561 35.8999 39.0496 35.8999H28.4246C26.6691 35.8999 25.7911 35.8999 25.1606 36.3212C24.8877 36.5037 24.6533 36.7379 24.471 37.0109C24.0496 37.6414 24.0496 38.5192 24.0496 40.2749C24.0496 47.3459 24.0496 50.8814 26.2463 53.0782C28.4431 55.2749 31.9781 55.2749 39.0491 55.2749H41.5491C48.6201 55.2749 52.1556 55.2749 54.3523 53.0782C56.5491 50.8814 56.5491 47.3459 56.5491 40.2749V20.2749C56.5491 13.2039 56.5491 9.6683 54.3523 7.4716C52.1556 5.2749 48.6201 5.2749 41.5491 5.2749H39.0491C31.9781 5.2749 28.4431 5.2749 26.2463 7.4716C24.0496 9.6683 24.0496 13.2038 24.0496 20.2749Z" fill="currentColor"/>
</svg>
